# Blender v2.79 (sub 4) OBJ File: ''
# www.blender.org
mtllib Pyramid.mtl
o Pyramid
v -1.000000 -1.000000 1.538462
v -1.000000 1.000000 1.538462
v -1.000000 -1.000000 -0.461538
v -1.000000 1.000000 -0.461538
v 1.000000 -1.000000 1.538462
v 1.000000 1.000000 1.538462
v 1.000000 -1.000000 -0.461538
v 1.000000 1.000000 -0.461538
v -1.000000 1.000000 -0.461538
v 0.000000 -0.000000 -2.461538
v -1.000000 -1.000000 -0.461538
v 1.000000 1.000000 -0.461538
v 1.000000 -1.000000 -0.461538
vn -1.0000 0.0000 0.0000
vn 0.0000 0.0000 -1.0000
vn 1.0000 0.0000 0.0000
vn 0.0000 0.0000 1.0000
vn 0.0000 -1.0000 0.0000
vn 0.0000 1.0000 0.0000
vn -0.8944 0.0000 -0.4472
vn 0.0000 -0.8944 -0.4472
vn 0.8944 0.0000 -0.4472
vn 0.0000 0.8944 -0.4472
usemtl None
s off
f 1//1 2//1 4//1 3//1
f 3//2 4//2 8//2 7//2
f 7//3 8//3 6//3 5//3
f 5//4 6//4 2//4 1//4
f 3//5 7//5 5//5 1//5
f 8//6 4//6 2//6 6//6
f 9//7 10//7 11//7
f 11//8 10//8 13//8
f 13//9 10//9 12//9
f 12//10 10//10 9//10
f 11//4 13//4 12//4 9//4
