# Blender v2.79 (sub 4) OBJ File: ''
# www.blender.org
mtllib Scene_all.mtl
o House_Cube.015
v 4.000000 -1.000000 2.000000
v 4.000000 1.000000 2.000000
v 3.000000 -1.000000 1.000000
v 3.000000 1.000000 1.000000
v 5.000000 -1.000000 1.000000
v 5.000000 1.000000 1.000000
v 4.000000 -1.000000 0.000000
v 4.000000 1.000000 0.000000
v 1.965261 -1.000000 2.000000
v 1.965261 1.000000 2.000000
v 1.965261 -1.000000 0.000000
v 1.965261 1.000000 0.000000
v 3.965261 -1.000000 2.000000
v 3.965261 1.000000 2.000000
v 3.965261 -1.000000 0.000000
v 3.965261 1.000000 0.000000
vn -0.7071 0.0000 0.7071
vn -0.7071 0.0000 -0.7071
vn 0.7071 0.0000 -0.7071
vn 0.7071 0.0000 0.7071
vn 0.0000 -1.0000 0.0000
vn 0.0000 1.0000 0.0000
vn -1.0000 0.0000 0.0000
vn 0.0000 0.0000 -1.0000
vn 1.0000 0.0000 0.0000
vn 0.0000 0.0000 1.0000
usemtl None
s off
f 1//1 2//1 4//1 3//1
f 3//2 4//2 8//2 7//2
f 7//3 8//3 6//3 5//3
f 5//4 6//4 2//4 1//4
f 3//5 7//5 5//5 1//5
f 8//6 4//6 2//6 6//6
f 9//7 10//7 12//7 11//7
f 11//8 12//8 16//8 15//8
f 15//9 16//9 14//9 13//9
f 13//10 14//10 10//10 9//10
f 11//5 15//5 13//5 9//5
f 16//6 12//6 10//6 14//6
o Cube_Cube.013
v 0.000000 -1.000000 2.000000
v 0.000000 1.000000 2.000000
v 0.000000 -1.000000 0.000000
v 0.000000 1.000000 0.000000
v 2.000000 -1.000000 2.000000
v 2.000000 1.000000 2.000000
v 2.000000 -1.000000 0.000000
v 2.000000 1.000000 0.000000
vn -1.0000 0.0000 0.0000
vn 0.0000 0.0000 -1.0000
vn 1.0000 0.0000 0.0000
vn 0.0000 0.0000 1.0000
vn 0.0000 -1.0000 0.0000
vn 0.0000 1.0000 0.0000
usemtl None
s off
f 17//11 18//11 20//11 19//11
f 19//12 20//12 24//12 23//12
f 23//13 24//13 22//13 21//13
f 21//14 22//14 18//14 17//14
f 19//15 23//15 21//15 17//15
f 24//16 20//16 18//16 22//16
o Long_Cube_Cube.003
v -5.589724 -1.000001 8.778000
v -5.589724 0.999999 8.778000
v -5.589724 -1.000001 2.778000
v -5.589724 0.999999 2.778000
v -3.589724 -1.000001 8.778000
v -3.589724 0.999999 8.778000
v -3.589724 -1.000001 2.778000
v -3.589724 0.999999 2.778000
vn -1.0000 0.0000 0.0000
vn 0.0000 0.0000 -1.0000
vn 1.0000 0.0000 0.0000
vn 0.0000 0.0000 1.0000
vn 0.0000 -1.0000 0.0000
vn 0.0000 1.0000 0.0000
usemtl None
s off
f 25//17 26//17 28//17 27//17
f 27//18 28//18 32//18 31//18
f 31//19 32//19 30//19 29//19
f 29//20 30//20 26//20 25//20
f 27//21 31//21 29//21 25//21
f 32//22 28//22 26//22 30//22
o Edge_Cube.002
v 1.000000 -1.000000 -2.631890
v 2.000000 -0.000000 -0.631890
v 1.000000 1.000000 -2.631890
v 3.000000 -1.000000 -2.631890
v 3.000000 1.000000 -2.631890
v 1.000000 -1.000000 -2.631890
v 1.000000 1.000000 -2.631890
v 1.000000 -1.000000 -4.631890
v 1.000000 1.000000 -4.631890
v 3.000000 -1.000000 -2.631890
v 3.000000 1.000000 -2.631890
v 3.000000 -1.000000 -4.631890
v 3.000000 1.000000 -4.631890
vn -0.8944 0.0000 0.4472
vn 0.0000 0.8944 0.4472
vn 0.8944 0.0000 0.4472
vn 0.0000 -0.8944 0.4472
vn 0.0000 0.0000 -1.0000
vn -1.0000 0.0000 0.0000
vn 1.0000 0.0000 0.0000
vn 0.0000 0.0000 1.0000
vn 0.0000 -1.0000 0.0000
vn 0.0000 1.0000 0.0000
usemtl None
s off
f 33//23 34//23 35//23
f 35//24 34//24 37//24
f 37//25 34//25 36//25
f 36//26 34//26 33//26
f 35//27 37//27 36//27 33//27
f 38//28 39//28 41//28 40//28
f 40//27 41//27 45//27 44//27
f 44//29 45//29 43//29 42//29
f 42//30 43//30 39//30 38//30
f 40//31 44//31 42//31 38//31
f 45//32 41//32 39//32 43//32
o Plane
v -300.000000 -1.000013 300.000000
v 300.000000 -1.000013 300.000000
v 300.000000 -0.999987 -300.000000
v -300.000000 -0.999987 -300.000000
vt 0.000000 0.000000
vt 1.000000 0.000000
vt 1.000000 1.000000
vt 0.000000 1.000000
vn 0.0000 1.0000 0.0000
usemtl None
s 1
f 46/1/33 47/2/33 48/3/33 49/4/33
